Coordinates
version=1
nRows=7
nColumns=38
inDegrees=yes

Units are S.I. units (second, meters, Newtons, ...)
Angles are in degrees.

endheader
time	pelvis_tilt	pelvis_list	pelvis_rotation	pelvis_tx	pelvis_ty	pelvis_tz	hip_flexion_r	hip_adduction_r	hip_rotation_r	knee_angle_r	ankle_angle_r	subtalar_angle_r	mtp_angle_r	hip_flexion_l	hip_adduction_l	hip_rotation_l	knee_angle_l	ankle_angle_l	subtalar_angle_l	mtp_angle_l	lumbar_extension	lumbar_bending	lumbar_rotation	arm_flex_r	arm_add_r	arm_rot_r	elbow_flex_r	pro_sup_r	wrist_flex_r	wrist_dev_r	arm_flex_l	arm_add_l	arm_rot_l	elbow_flex_l	pro_sup_l	wrist_flex_l	wrist_dev_l
      3.38000000	      0.12156620	     -1.48706853	     -3.18742891	     -0.09933312	      0.85480722	      2.61906250	    -18.30966417	      4.47392293	     -9.41300221	     -3.22868765	      8.14034090	      0.00000000	      0.00000000	     27.84156498	     -4.43214096	     -5.11177403	    -10.05086945	     -8.59012424	      0.00000000	      0.00000000	     -7.97402791	     -0.89188168	      7.61745417	     15.36749386	    -11.51424816	     12.70924316	     49.65881088	     86.60996013	      0.00000000	      0.00000000	    -17.01771582	     -7.37474018	     -6.96465133	     21.04777122	     99.48837809	      0.00000000	      0.00000000
      3.39000000	      0.17143843	     -1.38780182	     -3.76632618	     -0.09714873	      0.85176005	      2.61849585	    -19.52310692	      3.92079872	     -9.02025592	     -3.42860861	      7.63017149	      0.00000000	      0.00000000	     27.82624361	     -4.42310628	     -6.21695846	     -7.88647577	     -8.18694345	      0.00000000	      0.00000000	     -7.83844787	     -0.96906775	      8.44261040	     15.08046346	    -11.81760346	     12.64310115	     51.28013951	     86.66582172	      0.00000000	      0.00000000	    -17.55317735	     -7.11422460	     -7.26787714	     19.80510788	     99.57016962	      0.00000000	      0.00000000
      3.40000000	      0.15869239	     -1.23728243	     -4.35437075	     -0.09467584	      0.84876150	      2.61766494	    -20.54080291	      3.23945560	     -8.49563490	     -3.88754771	      7.04443958	      0.00000000	      0.00000000	     27.90627644	     -4.31343362	     -7.43677409	     -6.36749554	     -7.53454194	      0.00000000	      0.00000000	     -7.60152334	     -1.07605100	      9.30166545	     14.68054441	    -12.14283781	     12.49845340	     52.80473181	     86.76087142	      0.00000000	      0.00000000	    -18.03406075	     -6.89541808	     -7.51856958	     18.60910267	     99.66268582	      0.00000000	      0.00000000
      3.41000000	      0.10497780	     -1.05089508	     -4.95659403	     -0.09192067	      0.84591539	      2.61667881	    -21.39008297	      2.44232428	     -7.85216662	     -4.57736720	      6.35525540	      0.00000000	      0.00000000	     28.03164072	     -4.14174339	     -8.60508915	     -5.49928280	     -6.73137874	      0.00000000	      0.00000000	     -7.29665144	     -1.20934697	     10.19569997	     14.16537346	    -12.48019869	     12.27216305	     54.23274284	     86.88643151	      0.00000000	      0.00000000	    -18.45665379	     -6.73245107	     -7.73463790	     17.48438149	     99.74636893	      0.00000000	      0.00000000
      3.42000000	      0.05096000	     -0.83455007	     -5.57236484	     -0.08892654	      0.84333662	      2.61561526	    -22.10499575	      1.54997109	     -7.12250875	     -5.47423050	      5.48613066	      0.00000000	      0.00000000	     28.11566050	     -3.94784717	     -9.56992639	     -5.26552184	     -5.92242381	      0.00000000	      0.00000000	     -6.96528442	     -1.37327384	     11.11237807	     13.53436167	    -12.80888864	     11.96543090	     55.55400357	     87.02252701	      0.00000000	      0.00000000	    -18.82172475	     -6.62897354	     -7.93783437	     16.44415697	     99.80402315	      0.00000000	      0.00000000
      3.43000000	      0.03726756	     -0.58172212	     -6.18754821	     -0.08562837	      0.84112767	      2.61453089	    -22.70514152	      0.59394724	     -6.36393996	     -6.57871326	      4.31774958	      0.00000000	      0.00000000	     28.06096220	     -3.73598586	    -10.25773386	     -5.61721198	     -5.30493957	      0.00000000	      0.00000000	     -6.63580292	     -1.57712637	     12.01461310	     12.79078611	    -13.10075738	     11.58687532	     56.74305429	     87.14383384	      0.00000000	      0.00000000	    -19.13432683	     -6.58230884	     -8.14663595	     15.48707020	     99.82696618	      0.00000000	      0.00000000
      3.44000000	      0.07558722	     -0.28575115	     -6.76234416	     -0.08184624	      0.83927256	      2.61341836	    -23.18125090	     -0.39930194	     -5.66123625	     -7.92272097	      2.71926759	      0.00000000	      0.00000000	     27.81604636	     -3.46510059	    -10.69094882	     -6.46006064	     -5.09934681	      0.00000000	      0.00000000	     -6.31371761	     -1.82995012	     12.84158065	     11.94907752	    -13.32672479	     11.15362420	     57.75672516	     87.22633187	      0.00000000	      0.00000000	    -19.40099150	     -6.59242613	     -8.37077563	     14.59832431	     99.81869819	      0.00000000	      0.00000000
